# MagicaVoxel @ Ephtracy

# group
o 

# material
mtllib Missile.mtl
usemtl palette

# normals
vn -1 0 0
vn 1 0 0
vn 0 0 1
vn 0 0 -1
vn 0 -1 0
vn 0 1 0

# texcoords
vt 0.841797 0.5
vt 0.994141 0.5

# verts
v -0.2 0 0.3
v -0.2 0 -0.3
v -0.2 0.1 0.3
v -0.2 0.1 0.2
v -0.2 0.1 -0.2
v -0.2 0.1 -0.3
v -0.2 0.2 0.2
v -0.2 0.2 0.1
v -0.2 0.2 -0.1
v -0.2 0.2 -0.2
v -0.2 0.3 0.1
v -0.2 0.3 -0.1
v -0.1 0 0.3
v -0.1 0 0.1
v -0.1 0 -0.1
v -0.1 0 -0.3
v -0.1 0.1 0.3
v -0.1 0.1 0.2
v -0.1 0.1 0.1
v -0.1 0.1 -0.1
v -0.1 0.1 -0.2
v -0.1 0.1 -0.3
v 0.3 0 0.1
v 0.3 0 -0.1
v 0.3 0.1 0.2
v 0.3 0.1 0.1
v 0.3 0.1 -0.1
v 0.3 0.1 -0.2
v 0.3 0.2 0.2
v 0.3 0.2 0.1
v 0.3 0.2 -0.1
v 0.3 0.2 -0.2
v 0.3 0.3 0.1
v 0.3 0.3 -0.1
v -0.2 0 0.3
v -0.2 0.1 0.3
v -0.1 0 0.3
v -0.1 0.1 0.3
v -0.2 0.1 0.2
v -0.2 0.2 0.2
v -0.1 0.1 0.2
v 0.2 0.1 0.2
v 0.2 0.2 0.2
v 0.3 0.1 0.2
v 0.3 0.2 0.2
v -0.2 0.2 0.1
v -0.2 0.3 0.1
v -0.1 0 0.1
v -0.1 0.1 0.1
v 0.2 0 0.1
v 0.2 0.1 0.1
v 0.2 0.2 0.1
v 0.2 0.3 0.1
v 0.3 0 0.1
v 0.3 0.1 0.1
v 0.3 0.2 0.1
v 0.3 0.3 0.1
v -0.2 0.2 -0.1
v -0.2 0.3 -0.1
v -0.1 0 -0.1
v -0.1 0.1 -0.1
v 0.2 0 -0.1
v 0.2 0.1 -0.1
v 0.2 0.2 -0.1
v 0.2 0.3 -0.1
v 0.3 0 -0.1
v 0.3 0.1 -0.1
v 0.3 0.2 -0.1
v 0.3 0.3 -0.1
v -0.2 0.1 -0.2
v -0.2 0.2 -0.2
v -0.1 0.1 -0.2
v 0.2 0.1 -0.2
v 0.2 0.2 -0.2
v 0.3 0.1 -0.2
v 0.3 0.2 -0.2
v -0.2 0 -0.3
v -0.2 0.1 -0.3
v -0.1 0 -0.3
v -0.1 0.1 -0.3
v -0.2 0 0.3
v -0.1 0 0.3
v -0.1 0 0.1
v 0.2 0 0.1
v 0.3 0 0.1
v -0.1 0 -0.1
v 0.2 0 -0.1
v 0.3 0 -0.1
v -0.2 0 -0.3
v -0.1 0 -0.3
v -0.1 0.1 0.2
v 0.2 0.1 0.2
v 0.3 0.1 0.2
v -0.1 0.1 0.1
v 0.2 0.1 0.1
v 0.3 0.1 0.1
v -0.1 0.1 -0.1
v 0.2 0.1 -0.1
v 0.3 0.1 -0.1
v -0.1 0.1 -0.2
v 0.2 0.1 -0.2
v 0.3 0.1 -0.2
v -0.2 0.1 0.3
v -0.1 0.1 0.3
v -0.2 0.1 0.2
v -0.1 0.1 0.2
v -0.2 0.1 -0.2
v -0.1 0.1 -0.2
v -0.2 0.1 -0.3
v -0.1 0.1 -0.3
v -0.2 0.2 0.2
v 0.2 0.2 0.2
v 0.3 0.2 0.2
v -0.2 0.2 0.1
v 0.2 0.2 0.1
v 0.3 0.2 0.1
v -0.2 0.2 -0.1
v 0.2 0.2 -0.1
v 0.3 0.2 -0.1
v -0.2 0.2 -0.2
v 0.2 0.2 -0.2
v 0.3 0.2 -0.2
v -0.2 0.3 0.1
v 0.2 0.3 0.1
v 0.3 0.3 0.1
v -0.2 0.3 -0.1
v 0.2 0.3 -0.1
v 0.3 0.3 -0.1

# faces
f 3/2/1 2/2/1 1/2/1
f 4/2/1 2/2/1 3/2/1
f 5/2/1 2/2/1 4/2/1
f 6/2/1 2/2/1 5/2/1
f 7/2/1 5/2/1 4/2/1
f 8/2/1 5/2/1 7/2/1
f 9/2/1 5/2/1 8/2/1
f 10/2/1 5/2/1 9/2/1
f 11/2/1 9/2/1 8/2/1
f 12/2/1 9/2/1 11/2/1
f 13/2/2 14/2/2 17/2/2
f 17/2/2 14/2/2 18/2/2
f 18/2/2 14/2/2 19/2/2
f 15/2/2 16/2/2 20/2/2
f 20/2/2 16/2/2 21/2/2
f 21/2/2 16/2/2 22/2/2
f 23/1/2 24/1/2 26/1/2
f 26/1/2 24/1/2 27/1/2
f 25/1/2 26/1/2 29/1/2
f 27/1/2 28/1/2 29/1/2
f 26/1/2 27/1/2 29/1/2
f 29/1/2 28/1/2 30/1/2
f 30/1/2 28/1/2 31/1/2
f 31/1/2 28/1/2 32/1/2
f 30/1/2 31/1/2 33/1/2
f 33/1/2 31/1/2 34/1/2
f 37/2/3 36/2/3 35/2/3
f 38/2/3 36/2/3 37/2/3
f 41/2/3 40/2/3 39/2/3
f 42/2/3 40/2/3 41/2/3
f 43/2/3 40/2/3 42/2/3
f 44/1/3 43/1/3 42/1/3
f 45/1/3 43/1/3 44/1/3
f 50/2/3 49/2/3 48/2/3
f 51/2/3 49/2/3 50/2/3
f 52/2/3 47/2/3 46/2/3
f 53/2/3 47/2/3 52/2/3
f 54/1/3 51/1/3 50/1/3
f 55/1/3 51/1/3 54/1/3
f 56/1/3 53/1/3 52/1/3
f 57/1/3 53/1/3 56/1/3
f 60/2/4 61/2/4 62/2/4
f 62/2/4 61/2/4 63/2/4
f 58/2/4 59/2/4 64/2/4
f 64/2/4 59/2/4 65/2/4
f 62/1/4 63/1/4 66/1/4
f 66/1/4 63/1/4 67/1/4
f 64/1/4 65/1/4 68/1/4
f 68/1/4 65/1/4 69/1/4
f 70/2/4 71/2/4 72/2/4
f 72/2/4 71/2/4 73/2/4
f 73/2/4 71/2/4 74/2/4
f 73/1/4 74/1/4 75/1/4
f 75/1/4 74/1/4 76/1/4
f 77/2/4 78/2/4 79/2/4
f 79/2/4 78/2/4 80/2/4
f 83/2/5 82/2/5 81/2/5
f 86/2/5 83/2/5 81/2/5
f 86/2/5 84/2/5 83/2/5
f 87/1/5 85/1/5 84/1/5
f 87/2/5 84/2/5 86/2/5
f 88/1/5 85/1/5 87/1/5
f 89/2/5 86/2/5 81/2/5
f 90/2/5 86/2/5 89/2/5
f 94/2/5 92/2/5 91/2/5
f 95/1/5 93/1/5 92/1/5
f 95/2/5 92/2/5 94/2/5
f 96/1/5 93/1/5 95/1/5
f 100/2/5 98/2/5 97/2/5
f 101/1/5 99/1/5 98/1/5
f 101/2/5 98/2/5 100/2/5
f 102/1/5 99/1/5 101/1/5
f 103/2/6 104/2/6 105/2/6
f 105/2/6 104/2/6 106/2/6
f 107/2/6 108/2/6 109/2/6
f 109/2/6 108/2/6 110/2/6
f 111/2/6 112/2/6 114/2/6
f 112/1/6 113/1/6 115/1/6
f 114/2/6 112/2/6 115/2/6
f 115/1/6 113/1/6 116/1/6
f 117/2/6 118/2/6 120/2/6
f 118/1/6 119/1/6 121/1/6
f 120/2/6 118/2/6 121/2/6
f 121/1/6 119/1/6 122/1/6
f 123/2/6 124/2/6 126/2/6
f 124/1/6 125/1/6 127/1/6
f 126/2/6 124/2/6 127/2/6
f 127/1/6 125/1/6 128/1/6
