# MagicaVoxel @ Ephtracy

# group
o 

# material
mtllib coin.mtl
usemtl palette

# normals
vn -1 0 0
vn 1 0 0
vn 0 0 1
vn 0 0 -1
vn 0 -1 0
vn 0 1 0

# texcoords
vt 0.00976562 0.5
vt 0.0175781 0.5
vt 0.994141 0.5

# verts
v -0.5 0.2 0
v -0.5 0.2 -0.1
v -0.5 0.3 0
v -0.5 0.3 -0.1
v -0.5 0.8 0
v -0.5 0.8 -0.1
v -0.4 0.1 0
v -0.4 0.1 -0.1
v -0.4 0.2 0
v -0.4 0.2 -0.1
v -0.4 0.8 0
v -0.4 0.8 -0.1
v -0.4 0.9 0
v -0.4 0.9 -0.1
v -0.3 0 0
v -0.3 0 -0.1
v -0.3 0.1 0
v -0.3 0.1 -0.1
v -0.3 0.9 0
v -0.3 0.9 -0.1
v -0.3 1 0
v -0.3 1 -0.1
v 0.3 0 0
v 0.3 0 -0.1
v 0.3 0.1 0
v 0.3 0.1 -0.1
v 0.3 0.9 0
v 0.3 0.9 -0.1
v 0.3 1 0
v 0.3 1 -0.1
v 0.4 0.1 0
v 0.4 0.1 -0.1
v 0.4 0.2 0
v 0.4 0.2 -0.1
v 0.4 0.8 0
v 0.4 0.8 -0.1
v 0.4 0.9 0
v 0.4 0.9 -0.1
v 0.5 0.2 0
v 0.5 0.2 -0.1
v 0.5 0.7 0
v 0.5 0.7 -0.1
v 0.5 0.8 0
v 0.5 0.8 -0.1
v -0.5 0.2 0
v -0.5 0.3 0
v -0.5 0.8 0
v -0.4 0.1 0
v -0.4 0.2 0
v -0.4 0.3 0
v -0.4 0.8 0
v -0.4 0.9 0
v -0.3 0 0
v -0.3 0.1 0
v -0.3 0.2 0
v -0.3 0.3 0
v -0.3 0.7 0
v -0.3 0.9 0
v -0.3 1 0
v -0.2 0.2 0
v -0.2 0.3 0
v -0.2 0.7 0
v -0.2 0.8 0
v -0.1 0 0
v -0.1 0.1 0
v 0 0.4 0
v 0 0.5 0
v 0.1 0.2 0
v 0.1 0.3 0
v 0.1 0.4 0
v 0.2 0.3 0
v 0.2 0.5 0
v 0.2 0.9 0
v 0.2 1 0
v 0.3 0 0
v 0.3 0.1 0
v 0.3 0.7 0
v 0.3 0.8 0
v 0.3 0.9 0
v 0.3 1 0
v 0.4 0.1 0
v 0.4 0.2 0
v 0.4 0.7 0
v 0.4 0.8 0
v 0.4 0.9 0
v 0.5 0.2 0
v 0.5 0.7 0
v 0.5 0.8 0
v -0.5 0.2 -0.1
v -0.5 0.3 -0.1
v -0.5 0.8 -0.1
v -0.4 0.1 -0.1
v -0.4 0.2 -0.1
v -0.4 0.3 -0.1
v -0.4 0.8 -0.1
v -0.4 0.9 -0.1
v -0.3 0 -0.1
v -0.3 0.1 -0.1
v -0.3 0.2 -0.1
v -0.3 0.3 -0.1
v -0.3 0.7 -0.1
v -0.3 0.9 -0.1
v -0.3 1 -0.1
v -0.2 0.2 -0.1
v -0.2 0.3 -0.1
v -0.2 0.7 -0.1
v -0.2 0.8 -0.1
v -0.1 0 -0.1
v -0.1 0.1 -0.1
v 0 0.4 -0.1
v 0 0.5 -0.1
v 0.1 0.2 -0.1
v 0.1 0.3 -0.1
v 0.1 0.4 -0.1
v 0.2 0.3 -0.1
v 0.2 0.5 -0.1
v 0.2 0.9 -0.1
v 0.2 1 -0.1
v 0.3 0 -0.1
v 0.3 0.1 -0.1
v 0.3 0.7 -0.1
v 0.3 0.8 -0.1
v 0.3 0.9 -0.1
v 0.3 1 -0.1
v 0.4 0.1 -0.1
v 0.4 0.2 -0.1
v 0.4 0.7 -0.1
v 0.4 0.8 -0.1
v 0.4 0.9 -0.1
v 0.5 0.2 -0.1
v 0.5 0.7 -0.1
v 0.5 0.8 -0.1
v -0.3 0 0
v -0.1 0 0
v 0.3 0 0
v -0.3 0 -0.1
v -0.1 0 -0.1
v 0.3 0 -0.1
v -0.4 0.1 0
v -0.3 0.1 0
v 0.3 0.1 0
v 0.4 0.1 0
v -0.4 0.1 -0.1
v -0.3 0.1 -0.1
v 0.3 0.1 -0.1
v 0.4 0.1 -0.1
v -0.5 0.2 0
v -0.4 0.2 0
v 0.4 0.2 0
v 0.5 0.2 0
v -0.5 0.2 -0.1
v -0.4 0.2 -0.1
v 0.4 0.2 -0.1
v 0.5 0.2 -0.1
v -0.5 0.8 0
v -0.4 0.8 0
v 0.4 0.8 0
v 0.5 0.8 0
v -0.5 0.8 -0.1
v -0.4 0.8 -0.1
v 0.4 0.8 -0.1
v 0.5 0.8 -0.1
v -0.4 0.9 0
v -0.3 0.9 0
v 0.3 0.9 0
v 0.4 0.9 0
v -0.4 0.9 -0.1
v -0.3 0.9 -0.1
v 0.3 0.9 -0.1
v 0.4 0.9 -0.1
v -0.3 1 0
v 0.2 1 0
v 0.3 1 0
v -0.3 1 -0.1
v 0.2 1 -0.1
v 0.3 1 -0.1

# faces
f 3/1/1 2/1/1 1/1/1
f 4/1/1 2/1/1 3/1/1
f 5/2/1 4/2/1 3/2/1
f 6/2/1 4/2/1 5/2/1
f 9/1/1 8/1/1 7/1/1
f 10/1/1 8/1/1 9/1/1
f 13/2/1 12/2/1 11/2/1
f 14/2/1 12/2/1 13/2/1
f 17/1/1 16/1/1 15/1/1
f 18/1/1 16/1/1 17/1/1
f 21/2/1 20/2/1 19/2/1
f 22/2/1 20/2/1 21/2/1
f 23/2/2 24/2/2 25/2/2
f 25/2/2 24/2/2 26/2/2
f 27/1/2 28/1/2 29/1/2
f 29/1/2 28/1/2 30/1/2
f 31/2/2 32/2/2 33/2/2
f 33/2/2 32/2/2 34/2/2
f 35/1/2 36/1/2 37/1/2
f 37/1/2 36/1/2 38/1/2
f 39/2/2 40/2/2 41/2/2
f 41/2/2 40/2/2 42/2/2
f 41/1/2 42/1/2 43/1/2
f 43/1/2 42/1/2 44/1/2
f 49/1/3 46/1/3 45/1/3
f 50/2/3 47/2/3 46/2/3
f 50/1/3 46/1/3 49/1/3
f 51/2/3 47/2/3 50/2/3
f 54/1/3 49/1/3 48/1/3
f 55/2/3 52/2/3 51/2/3
f 55/2/3 50/2/3 49/2/3
f 55/1/3 49/1/3 54/1/3
f 55/2/3 51/2/3 50/2/3
f 56/2/3 52/2/3 55/2/3
f 57/2/3 52/2/3 56/2/3
f 58/2/3 52/2/3 57/2/3
f 60/2/3 55/2/3 54/2/3
f 60/2/3 56/2/3 55/2/3
f 61/3/3 57/3/3 56/3/3
f 61/2/3 56/2/3 60/2/3
f 62/2/3 59/2/3 58/2/3
f 62/3/3 57/3/3 61/3/3
f 62/2/3 58/2/3 57/2/3
f 63/2/3 59/2/3 62/2/3
f 64/1/3 54/1/3 53/1/3
f 65/2/3 60/2/3 54/2/3
f 65/1/3 54/1/3 64/1/3
f 66/2/3 62/2/3 61/2/3
f 67/2/3 62/2/3 66/2/3
f 68/3/3 61/3/3 60/3/3
f 68/2/3 60/2/3 65/2/3
f 68/2/3 65/2/3 64/2/3
f 69/2/3 66/2/3 61/2/3
f 69/3/3 61/3/3 68/3/3
f 70/3/3 67/3/3 66/3/3
f 70/2/3 66/2/3 69/2/3
f 71/2/3 69/2/3 68/2/3
f 71/3/3 70/3/3 69/3/3
f 72/2/3 62/2/3 67/2/3
f 72/3/3 70/3/3 71/3/3
f 72/3/3 67/3/3 70/3/3
f 73/2/3 59/2/3 63/2/3
f 74/2/3 59/2/3 73/2/3
f 75/2/3 71/2/3 68/2/3
f 75/2/3 68/2/3 64/2/3
f 75/2/3 72/2/3 71/2/3
f 76/2/3 72/2/3 75/2/3
f 77/2/3 62/2/3 72/2/3
f 77/2/3 72/2/3 76/2/3
f 77/3/3 63/3/3 62/3/3
f 78/2/3 73/2/3 63/2/3
f 78/3/3 63/3/3 77/3/3
f 79/1/3 74/1/3 73/1/3
f 79/2/3 73/2/3 78/2/3
f 80/1/3 74/1/3 79/1/3
f 81/2/3 78/2/3 77/2/3
f 81/2/3 77/2/3 76/2/3
f 82/2/3 78/2/3 81/2/3
f 83/2/3 78/2/3 82/2/3
f 84/1/3 79/1/3 78/1/3
f 84/2/3 78/2/3 83/2/3
f 85/1/3 79/1/3 84/1/3
f 86/2/3 83/2/3 82/2/3
f 87/1/3 84/1/3 83/1/3
f 87/2/3 83/2/3 86/2/3
f 88/1/3 84/1/3 87/1/3
f 89/1/4 90/1/4 93/1/4
f 90/2/4 91/2/4 94/2/4
f 93/1/4 90/1/4 94/1/4
f 94/2/4 91/2/4 95/2/4
f 92/1/4 93/1/4 98/1/4
f 95/2/4 96/2/4 99/2/4
f 93/2/4 94/2/4 99/2/4
f 98/1/4 93/1/4 99/1/4
f 94/2/4 95/2/4 99/2/4
f 99/2/4 96/2/4 100/2/4
f 100/2/4 96/2/4 101/2/4
f 101/2/4 96/2/4 102/2/4
f 98/2/4 99/2/4 104/2/4
f 99/2/4 100/2/4 104/2/4
f 100/3/4 101/3/4 105/3/4
f 104/2/4 100/2/4 105/2/4
f 102/2/4 103/2/4 106/2/4
f 105/3/4 101/3/4 106/3/4
f 101/2/4 102/2/4 106/2/4
f 106/2/4 103/2/4 107/2/4
f 97/1/4 98/1/4 108/1/4
f 98/2/4 104/2/4 109/2/4
f 108/1/4 98/1/4 109/1/4
f 105/2/4 106/2/4 110/2/4
f 110/2/4 106/2/4 111/2/4
f 104/3/4 105/3/4 112/3/4
f 109/2/4 104/2/4 112/2/4
f 108/2/4 109/2/4 112/2/4
f 105/2/4 110/2/4 113/2/4
f 112/3/4 105/3/4 113/3/4
f 110/3/4 111/3/4 114/3/4
f 113/2/4 110/2/4 114/2/4
f 112/2/4 113/2/4 115/2/4
f 113/3/4 114/3/4 115/3/4
f 111/2/4 106/2/4 116/2/4
f 115/3/4 114/3/4 116/3/4
f 114/3/4 111/3/4 116/3/4
f 107/2/4 103/2/4 117/2/4
f 117/2/4 103/2/4 118/2/4
f 112/2/4 115/2/4 119/2/4
f 108/2/4 112/2/4 119/2/4
f 115/2/4 116/2/4 119/2/4
f 119/2/4 116/2/4 120/2/4
f 116/2/4 106/2/4 121/2/4
f 120/2/4 116/2/4 121/2/4
f 106/3/4 107/3/4 121/3/4
f 107/2/4 117/2/4 122/2/4
f 121/3/4 107/3/4 122/3/4
f 117/1/4 118/1/4 123/1/4
f 122/2/4 117/2/4 123/2/4
f 123/1/4 118/1/4 124/1/4
f 121/2/4 122/2/4 125/2/4
f 120/2/4 121/2/4 125/2/4
f 125/2/4 122/2/4 126/2/4
f 126/2/4 122/2/4 127/2/4
f 122/1/4 123/1/4 128/1/4
f 127/2/4 122/2/4 128/2/4
f 128/1/4 123/1/4 129/1/4
f 126/2/4 127/2/4 130/2/4
f 127/1/4 128/1/4 131/1/4
f 130/2/4 127/2/4 131/2/4
f 131/1/4 128/1/4 132/1/4
f 136/1/5 134/1/5 133/1/5
f 137/2/5 135/2/5 134/2/5
f 137/1/5 134/1/5 136/1/5
f 138/2/5 135/2/5 137/2/5
f 143/1/5 140/1/5 139/1/5
f 144/1/5 140/1/5 143/1/5
f 145/2/5 142/2/5 141/2/5
f 146/2/5 142/2/5 145/2/5
f 151/1/5 148/1/5 147/1/5
f 152/1/5 148/1/5 151/1/5
f 153/2/5 150/2/5 149/2/5
f 154/2/5 150/2/5 153/2/5
f 155/2/6 156/2/6 159/2/6
f 159/2/6 156/2/6 160/2/6
f 157/1/6 158/1/6 161/1/6
f 161/1/6 158/1/6 162/1/6
f 163/2/6 164/2/6 167/2/6
f 167/2/6 164/2/6 168/2/6
f 165/1/6 166/1/6 169/1/6
f 169/1/6 166/1/6 170/1/6
f 171/2/6 172/2/6 174/2/6
f 172/1/6 173/1/6 175/1/6
f 174/2/6 172/2/6 175/2/6
f 175/1/6 173/1/6 176/1/6
