# MagicaVoxel @ Ephtracy

# group
o 

# material
mtllib Missile.mtl
usemtl palette

# normals
vn -1 0 0
vn 1 0 0
vn 0 0 1
vn 0 0 -1
vn 0 -1 0
vn 0 1 0

# texcoords
vt 0.841797 0.5
vt 0.994141 0.5

# verts
v -0.2 0 0.3
v -0.2 0 -0.2
v -0.2 0.1 0.4
v -0.2 0.1 0.3
v -0.2 0.2 0.4
v -0.2 0.2 0.3
v -0.2 0.2 -0.2
v -0.1 0 0.4
v -0.1 0 0.3
v -0.1 0 -0.2
v -0.1 0 -0.3
v -0.1 0.1 0.4
v -0.1 0.1 0.3
v -0.1 0.2 0.4
v -0.1 0.2 0.3
v -0.1 0.2 -0.2
v -0.1 0.3 0.4
v -0.1 0.3 0.3
v -0.1 0.3 -0.3
v 0.1 0 0.4
v 0.1 0 0.3
v 0.1 0 -0.2
v 0.1 0 -0.3
v 0.1 0.1 0.4
v 0.1 0.1 0.3
v 0.1 0.2 0.4
v 0.1 0.2 0.3
v 0.1 0.2 -0.2
v 0.1 0.3 0.4
v 0.1 0.3 0.3
v 0.1 0.3 -0.3
v 0.2 0 0.3
v 0.2 0 -0.2
v 0.2 0.1 0.4
v 0.2 0.1 0.3
v 0.2 0.2 0.4
v 0.2 0.2 0.3
v 0.2 0.2 -0.2
v -0.2 0.1 0.4
v -0.2 0.2 0.4
v -0.1 0 0.4
v -0.1 0.1 0.4
v -0.1 0.2 0.4
v -0.1 0.3 0.4
v 0.1 0 0.4
v 0.1 0.1 0.4
v 0.1 0.2 0.4
v 0.1 0.3 0.4
v 0.2 0.1 0.4
v 0.2 0.2 0.4
v -0.2 0 0.3
v -0.2 0.1 0.3
v -0.1 0 0.3
v -0.1 0.1 0.3
v 0.1 0 0.3
v 0.1 0.1 0.3
v 0.2 0 0.3
v 0.2 0.1 0.3
v -0.2 0 -0.2
v -0.2 0.2 -0.2
v -0.1 0 -0.2
v -0.1 0.2 -0.2
v 0.1 0 -0.2
v 0.1 0.2 -0.2
v 0.2 0 -0.2
v 0.2 0.2 -0.2
v -0.1 0 -0.3
v -0.1 0.3 -0.3
v 0.1 0 -0.3
v 0.1 0.3 -0.3
v -0.1 0 0.4
v 0.1 0 0.4
v -0.2 0 0.3
v -0.1 0 0.3
v 0.1 0 0.3
v 0.2 0 0.3
v -0.2 0 -0.2
v -0.1 0 -0.2
v 0.1 0 -0.2
v 0.2 0 -0.2
v -0.1 0 -0.3
v 0.1 0 -0.3
v -0.2 0.1 0.4
v -0.1 0.1 0.4
v 0.1 0.1 0.4
v 0.2 0.1 0.4
v -0.2 0.1 0.3
v -0.1 0.1 0.3
v 0.1 0.1 0.3
v 0.2 0.1 0.3
v -0.2 0.2 0.4
v -0.1 0.2 0.4
v 0.1 0.2 0.4
v 0.2 0.2 0.4
v -0.2 0.2 0.3
v -0.1 0.2 0.3
v 0.1 0.2 0.3
v 0.2 0.2 0.3
v -0.2 0.2 -0.2
v -0.1 0.2 -0.2
v 0.1 0.2 -0.2
v 0.2 0.2 -0.2
v -0.1 0.3 0.4
v 0.1 0.3 0.4
v -0.1 0.3 0.3
v 0.1 0.3 0.3
v -0.1 0.3 -0.3
v 0.1 0.3 -0.3

# faces
f 4/2/1 2/2/1 1/2/1
f 5/1/1 4/1/1 3/1/1
f 6/2/1 2/2/1 4/2/1
f 6/1/1 4/1/1 5/1/1
f 7/2/1 2/2/1 6/2/1
f 12/1/1 9/1/1 8/1/1
f 13/1/1 9/1/1 12/1/1
f 16/2/1 11/2/1 10/2/1
f 17/1/1 15/1/1 14/1/1
f 18/2/1 16/2/1 15/2/1
f 18/1/1 15/1/1 17/1/1
f 19/2/1 11/2/1 16/2/1
f 19/2/1 16/2/1 18/2/1
f 20/1/2 21/1/2 24/1/2
f 24/1/2 21/1/2 25/1/2
f 22/2/2 23/2/2 28/2/2
f 26/1/2 27/1/2 29/1/2
f 27/2/2 28/2/2 30/2/2
f 29/1/2 27/1/2 30/1/2
f 28/2/2 23/2/2 31/2/2
f 30/2/2 28/2/2 31/2/2
f 32/2/2 33/2/2 35/2/2
f 34/1/2 35/1/2 36/1/2
f 35/2/2 33/2/2 37/2/2
f 36/1/2 35/1/2 37/1/2
f 37/2/2 33/2/2 38/2/2
f 42/1/3 40/1/3 39/1/3
f 43/1/3 40/1/3 42/1/3
f 45/1/3 42/1/3 41/1/3
f 45/1/3 44/1/3 43/1/3
f 45/1/3 43/1/3 42/1/3
f 46/1/3 44/1/3 45/1/3
f 47/1/3 44/1/3 46/1/3
f 48/1/3 44/1/3 47/1/3
f 49/1/3 47/1/3 46/1/3
f 50/1/3 47/1/3 49/1/3
f 53/2/3 52/2/3 51/2/3
f 54/2/3 52/2/3 53/2/3
f 57/2/3 56/2/3 55/2/3
f 58/2/3 56/2/3 57/2/3
f 59/2/4 60/2/4 61/2/4
f 61/2/4 60/2/4 62/2/4
f 63/2/4 64/2/4 65/2/4
f 65/2/4 64/2/4 66/2/4
f 67/2/4 68/2/4 69/2/4
f 69/2/4 68/2/4 70/2/4
f 74/1/5 72/1/5 71/1/5
f 75/1/5 72/1/5 74/1/5
f 77/2/5 74/2/5 73/2/5
f 77/2/5 76/2/5 75/2/5
f 77/2/5 75/2/5 74/2/5
f 78/2/5 76/2/5 77/2/5
f 79/2/5 76/2/5 78/2/5
f 80/2/5 76/2/5 79/2/5
f 81/2/5 79/2/5 78/2/5
f 82/2/5 79/2/5 81/2/5
f 87/1/5 84/1/5 83/1/5
f 88/1/5 84/1/5 87/1/5
f 89/1/5 86/1/5 85/1/5
f 90/1/5 86/1/5 89/1/5
f 91/1/6 92/1/6 95/1/6
f 95/1/6 92/1/6 96/1/6
f 93/1/6 94/1/6 97/1/6
f 97/1/6 94/1/6 98/1/6
f 95/2/6 96/2/6 99/2/6
f 99/2/6 96/2/6 100/2/6
f 97/2/6 98/2/6 101/2/6
f 101/2/6 98/2/6 102/2/6
f 103/1/6 104/1/6 105/1/6
f 105/1/6 104/1/6 106/1/6
f 105/2/6 106/2/6 107/2/6
f 107/2/6 106/2/6 108/2/6
